<svg width="91" height="67" viewBox="0 0 91 67" fill="none" xmlns="http://www.w3.org/2000/svg">
<g opacity="0.08">
<path d="M56.9155 49.0469L75.4309 52.4945L74.9169 54.7827L56.4014 51.3351L56.9155 49.0469Z" fill="#424242"/>
<path d="M70.4019 42.5793L72.9153 43.0472L68.4445 62.9494L65.9312 62.4814L70.4019 42.5793Z" fill="#424242"/>
<path d="M63.5015 41.2951L66.0149 41.7631L61.7369 60.8071L59.2236 60.3391L63.5015 41.2951Z" fill="#424242"/>
<path d="M50.1895 54.9266L68.8586 62.296C69.0915 62.3874 69.3386 62.4622 69.5717 62.5056C71.1425 62.7981 72.4855 61.9427 72.8275 60.4203L75.9427 46.5525C76.2847 45.0301 75.4285 43.7652 73.8476 43.4708C73.6145 43.4274 73.3671 43.4006 73.1013 43.4088L54.1065 43.5055L52.3689 41.1825L73.0882 41.0704C73.5223 41.0647 73.9562 41.1071 74.3616 41.1826C77.3208 41.7336 79.0698 44.2413 78.4459 47.0186L75.3307 60.8864C74.7068 63.6637 72.0068 65.343 69.0577 64.7939C68.6523 64.7184 68.235 64.6022 67.8381 64.4418L48.1606 56.6732L50.1975 54.9377L50.1895 54.9266Z" fill="#424242"/>
<path d="M59.7233 52.5683C59.2973 55.5458 53.5519 58.5614 51.1844 58.5724C48.8089 58.5723 7.09281 43.8162 7.09281 43.8162L6.25274 41.7276L50.5852 35.7652C50.5852 35.7652 60.1472 49.6 59.7233 52.5683Z" fill="#A3A3A3"/>
<path d="M49.444 40.1388L37.9373 41.8701C37.9373 41.8701 49.5419 49.3852 51.464 50.0411C53.3861 50.697 54.1 49.4457 54.4685 48.3224C54.8269 47.1971 49.4419 40.148 49.4419 40.148L49.444 40.1388Z" fill="white"/>
<path d="M52.7947 56.4885C54.3568 56.4909 57.353 55.2321 59.3898 53.5446C58.0708 56.1732 53.29 58.5609 51.1862 58.5729C48.8106 58.5728 7.09459 43.8167 7.09459 43.8167L6.25452 41.7281L7.64705 41.5452C7.97918 41.6647 50.3766 56.49 52.7927 56.4977L52.7947 56.4885Z" fill="#525252"/>
<path d="M44.9983 6.07125C60.4329 8.94521 71.1102 21.1997 71.3651 34.9645L6.30445 42.4888C5.20845 38.3435 5.07126 33.9249 6.07028 29.4776C9.72022 13.2293 27.1518 2.74817 44.9983 6.07125Z" fill="#D6D6D6"/>
<path d="M40.8552 14.3261C52.3779 16.4716 60.545 25.4711 61.7948 36.0759L8.54957 42.2339C8.32609 39.7507 8.48035 37.1839 9.06069 34.6004C12.18 20.7142 26.4138 11.637 40.8552 14.3261Z" fill="#A3A3A3"/>
<path d="M52.5787 37.1369L86.0742 33.2613C86.0742 33.2613 87.1255 31.0251 81.2854 30.0914L70.3403 28.0534L52.5787 37.1369Z" fill="#525252"/>
</g>
<path d="M44.2516 50.6792L56.6067 52.9797L56.2637 54.5067L43.9086 52.2061L44.2516 50.6792Z" fill="#424242"/>
<path d="M53.2499 46.3637L54.927 46.676L51.9438 59.9565L50.2667 59.6443L53.2499 46.3637Z" fill="#424242"/>
<path d="M48.6464 45.5063L50.3235 45.8186L47.4689 58.5265L45.7918 58.2142L48.6464 45.5063Z" fill="#424242"/>
<path d="M39.7615 54.6022L52.2192 59.5198C52.3746 59.5808 52.5395 59.6307 52.695 59.6597C53.7432 59.8549 54.6394 59.2841 54.8676 58.2682L56.9463 49.0143C57.1746 47.9984 56.6033 47.1544 55.5483 46.9579C55.3928 46.929 55.2277 46.9111 55.0503 46.9165L42.3752 46.9811L41.2157 45.4309L55.0415 45.3562C55.3312 45.3524 55.6208 45.3806 55.8913 45.431C57.866 45.7987 59.033 47.4721 58.6167 49.3253L56.538 58.5792C56.1217 60.4324 54.3199 61.553 52.352 61.1866C52.0815 61.1362 51.803 61.0587 51.5382 60.9517L38.4076 55.7677L39.7668 54.6097L39.7615 54.6022Z" fill="#424242"/>
<path d="M46.1258 53.0312C45.8415 55.018 42.0077 57.0303 40.4279 57.0376C38.8427 57.0375 11.006 47.1909 11.006 47.1909L10.4454 45.7972L40.028 41.8186C40.028 41.8186 46.4087 51.0505 46.1258 53.0312Z" fill="#A3A3A3"/>
<path d="M39.265 44.7363L31.5867 45.8916C31.5867 45.8916 39.3303 50.9064 40.6129 51.344C41.8955 51.7817 42.3719 50.9467 42.6178 50.1971C42.8569 49.4463 39.2636 44.7425 39.2636 44.7425L39.265 44.7363Z" fill="white"/>
<path d="M41.5005 55.6453C42.5428 55.647 44.5422 54.8069 45.9013 53.6809C45.0211 55.4349 41.8309 57.0282 40.4271 57.0362C38.8419 57.0361 11.0052 47.1895 11.0052 47.1895L10.4446 45.7958L11.3738 45.6738C11.5954 45.7535 39.8868 55.6463 41.4991 55.6515L41.5005 55.6453Z" fill="#525252"/>
<path d="M36.3 22.0015C46.5993 23.9193 53.7242 32.0966 53.8943 41.2817L10.4799 46.3026C9.74856 43.5365 9.65701 40.588 10.3237 37.6204C12.7592 26.778 24.3912 19.7841 36.3 22.0015Z" fill="#D6D6D6"/>
<path d="M33.5323 27.511C41.2213 28.9428 46.6712 34.948 47.5052 42.0245L11.9751 46.1337C11.826 44.4766 11.9289 42.7639 12.3162 41.04C14.3977 31.7738 23.8957 25.7167 33.5323 27.511Z" fill="#A3A3A3"/>
<path d="M41.3598 42.7331L63.711 40.1469C63.711 40.1469 64.4126 38.6547 60.5155 38.0317L53.212 36.6718L41.3598 42.7331Z" fill="#525252"/>
</svg>
