<svg width="24" height="25" viewBox="0 0 24 25" fill="none" xmlns="http://www.w3.org/2000/svg">
<path d="M13.3 17.9061C13.1 17.7061 13.0042 17.4644 13.0125 17.1811C13.0208 16.8978 13.125 16.6561 13.325 16.4561L16.15 13.6311H5C4.71667 13.6311 4.47917 13.5353 4.2875 13.3436C4.09583 13.1519 4 12.9144 4 12.6311C4 12.3478 4.09583 12.1103 4.2875 11.9186C4.47917 11.7269 4.71667 11.6311 5 11.6311H16.15L13.3 8.7811C13.1 8.5811 13 8.3436 13 8.0686C13 7.7936 13.1 7.5561 13.3 7.3561C13.5 7.1561 13.7375 7.0561 14.0125 7.0561C14.2875 7.0561 14.525 7.1561 14.725 7.3561L19.3 11.9311C19.4 12.0311 19.4708 12.1394 19.5125 12.2561C19.5542 12.3728 19.575 12.4978 19.575 12.6311C19.575 12.7644 19.5542 12.8894 19.5125 13.0061C19.4708 13.1228 19.4 13.2311 19.3 13.3311L14.7 17.9311C14.5167 18.1144 14.2875 18.2061 14.0125 18.2061C13.7375 18.2061 13.5 18.1061 13.3 17.9061Z" fill="#1D1B1B"/>
</svg>
