<svg width="24" height="25" viewBox="0 0 24 25" fill="none" xmlns="http://www.w3.org/2000/svg">
<path d="M6.7 15.3311C6.51667 15.1478 6.425 14.9144 6.425 14.6311C6.425 14.3478 6.51667 14.1144 6.7 13.9311L11.3 9.3311C11.4 9.2311 11.5083 9.16027 11.625 9.1186C11.7417 9.07694 11.8667 9.0561 12 9.0561C12.1333 9.0561 12.2625 9.0811 12.3875 9.1311C12.5125 9.1811 12.6167 9.24777 12.7 9.3311L17.3 13.9311C17.4833 14.1144 17.575 14.3478 17.575 14.6311C17.575 14.9144 17.4833 15.1478 17.3 15.3311C17.1167 15.5144 16.8833 15.6061 16.6 15.6061C16.3167 15.6061 16.0833 15.5144 15.9 15.3311L12 11.4311L8.1 15.3311C7.91667 15.5144 7.68334 15.6061 7.4 15.6061C7.11667 15.6061 6.88334 15.5144 6.7 15.3311Z" fill="#1D1B1B"/>
</svg>
