<svg width="24" height="25" viewBox="0 0 24 25" fill="none" xmlns="http://www.w3.org/2000/svg">
<path d="M12 15.6061C11.8667 15.6061 11.7375 15.5811 11.6125 15.5311C11.4875 15.4811 11.3833 15.4144 11.3 15.3311L6.7 10.7311C6.51667 10.5478 6.425 10.3144 6.425 10.0311C6.425 9.74776 6.51667 9.51442 6.7 9.33109C6.88334 9.14776 7.11667 9.05609 7.4 9.05609C7.68334 9.05609 7.91667 9.14776 8.1 9.33109L12 13.2311L15.9 9.33109C16.0833 9.14776 16.3167 9.05609 16.6 9.05609C16.8833 9.05609 17.1167 9.14776 17.3 9.33109C17.4833 9.51442 17.575 9.74776 17.575 10.0311C17.575 10.3144 17.4833 10.5478 17.3 10.7311L12.7 15.3311C12.6 15.4311 12.4917 15.5019 12.375 15.5436C12.2583 15.5853 12.1333 15.6061 12 15.6061Z" fill="#1D1B1B"/>
</svg>
