<svg width="16" height="17" viewBox="0 0 16 17" fill="none" xmlns="http://www.w3.org/2000/svg">
<path d="M6.64994 13.6645C6.52771 13.6645 6.41105 13.6311 6.29994 13.5645C6.18882 13.4978 6.10549 13.4033 6.04994 13.2811L4.98327 10.9478L2.64993 9.88112C2.52771 9.82557 2.43327 9.74223 2.3666 9.63112C2.29993 9.52001 2.2666 9.40335 2.2666 9.28112C2.2666 9.1589 2.29993 9.04224 2.3666 8.93112C2.43327 8.82001 2.52771 8.73668 2.64993 8.68112L4.98327 7.61446L6.04994 5.28112C6.10549 5.1589 6.18882 5.06446 6.29994 4.99779C6.41105 4.93112 6.52771 4.89779 6.64994 4.89779C6.77216 4.89779 6.88882 4.93112 6.99993 4.99779C7.11105 5.06446 7.19438 5.1589 7.24993 5.28112L8.3166 7.61446L10.6499 8.68112C10.7722 8.73668 10.8666 8.82001 10.9333 8.93112C10.9999 9.04224 11.0333 9.1589 11.0333 9.28112C11.0333 9.40335 10.9999 9.52001 10.9333 9.63112C10.8666 9.74223 10.7722 9.82557 10.6499 9.88112L8.3166 10.9478L7.24993 13.2811C7.19438 13.4033 7.11105 13.4978 6.99993 13.5645C6.88882 13.6311 6.77216 13.6645 6.64994 13.6645Z" fill="url(#paint0_linear_2001_1899)"/>
<path d="M12 7.29779C11.9442 7.29779 11.891 7.28258 11.8403 7.25216C11.7896 7.22174 11.7516 7.17865 11.7262 7.12289L11.2395 6.05825L10.1749 5.57155C10.1191 5.54621 10.076 5.50818 10.0456 5.45749C10.0152 5.40679 10 5.35356 10 5.29779C10 5.24202 10.0152 5.18879 10.0456 5.13809C10.076 5.0874 10.1191 5.04937 10.1749 5.02403L11.2395 4.53733L11.7262 3.4727C11.7516 3.41693 11.7896 3.37384 11.8403 3.34342C11.891 3.313 11.9442 3.29779 12 3.29779C12.0558 3.29779 12.109 3.313 12.1597 3.34342C12.2104 3.37384 12.2484 3.41693 12.2738 3.4727L12.7605 4.53733L13.8251 5.02403C13.8809 5.04937 13.924 5.0874 13.9544 5.13809C13.9848 5.18879 14 5.24202 14 5.29779C14 5.35356 13.9848 5.40679 13.9544 5.45749C13.924 5.50818 13.8809 5.54621 13.8251 5.57155L12.7605 6.05825L12.2738 7.12289C12.2484 7.17865 12.2104 7.22174 12.1597 7.25216C12.109 7.28258 12.0558 7.29779 12 7.29779Z" fill="url(#paint1_linear_2001_1899)"/>
<defs>
<linearGradient id="paint0_linear_2001_1899" x1="-1.34749" y1="8.48112" x2="24.9687" y2="4.50372" gradientUnits="userSpaceOnUse">
<stop offset="0.00477295" stop-color="#FF0F0F"/>
<stop offset="0.07" stop-color="#FD1F10"/>
<stop offset="0.14" stop-color="#FB3011"/>
<stop offset="0.23" stop-color="#F94511"/>
<stop offset="0.315" stop-color="#F65A12"/>
<stop offset="0.525" stop-color="#F08C15"/>
<stop offset="0.645" stop-color="#EDA916"/>
<stop offset="0.76" stop-color="#E9C517"/>
<stop offset="1" stop-color="#E2FF1A"/>
</linearGradient>
<linearGradient id="paint1_linear_2001_1899" x1="-1.34749" y1="8.48112" x2="24.9687" y2="4.50372" gradientUnits="userSpaceOnUse">
<stop offset="0.00477295" stop-color="#FF0F0F"/>
<stop offset="0.07" stop-color="#FD1F10"/>
<stop offset="0.14" stop-color="#FB3011"/>
<stop offset="0.23" stop-color="#F94511"/>
<stop offset="0.315" stop-color="#F65A12"/>
<stop offset="0.525" stop-color="#F08C15"/>
<stop offset="0.645" stop-color="#EDA916"/>
<stop offset="0.76" stop-color="#E9C517"/>
<stop offset="1" stop-color="#E2FF1A"/>
</linearGradient>
</defs>
</svg>
