<svg width="16" height="17" viewBox="0 0 16 17" fill="none" xmlns="http://www.w3.org/2000/svg">
<g clip-path="url(#clip0_2001_1403)">
<path d="M6.1606 3.25929L6.58558 3.03466C6.62807 3.0124 6.64629 2.95776 6.622 2.91526L6.44999 2.58945C6.42773 2.54695 6.37511 2.52874 6.33059 2.55302L5.90562 2.77765L5.83681 2.64611C5.81253 2.59754 5.75182 2.57933 5.70325 2.60564L3.3072 3.86842C3.25863 3.89473 3.24042 3.95544 3.26673 4.00198L3.33553 4.13352L2.91056 4.35815C2.86604 4.38041 2.84985 4.43505 2.87413 4.47755L3.04615 4.80134C3.06841 4.84384 3.12305 4.86205 3.16554 4.83776L3.59052 4.61314L3.65932 4.74468C3.68563 4.79122 3.74432 4.81146 3.79289 4.78515L6.18893 3.52034C6.2375 3.49404 6.25572 3.43535 6.22941 3.38476L6.1606 3.25929Z" fill="#737373"/>
<path d="M8.63187 2.52064L9.08517 2.68254L9.03458 2.82217C9.01637 2.87479 9.04268 2.92943 9.09529 2.94764L11.6451 3.86235C11.6957 3.88056 11.7524 3.85425 11.7706 3.80164L11.8212 3.662L12.2745 3.8239C12.3211 3.84009 12.3716 3.8158 12.3878 3.77128L12.5113 3.42523C12.5275 3.37869 12.5032 3.3281 12.4566 3.31191L12.0033 3.15001L12.0539 3.01038C12.0721 2.95978 12.0458 2.90312 11.9932 2.88288L9.44337 1.9702C9.39277 1.95199 9.33611 1.9783 9.3179 2.03091L9.2673 2.17055L8.814 2.00865C8.76745 1.99246 8.71484 2.01675 8.69865 2.06127L8.5752 2.40732C8.56104 2.45184 8.58532 2.50243 8.63187 2.52064Z" fill="#737373"/>
<path d="M7.40974 5.1902L6.86335 5.23067C6.51325 5.25698 6.24815 5.50589 6.27041 5.78921L7.31463 19.7405H9.13393L8.08161 5.65362C8.05935 5.37233 7.75782 5.16389 7.40974 5.1902Z" fill="#737373"/>
<path d="M3.9792 5.43457L3.43483 5.49528C3.08676 5.53373 2.82975 5.79276 2.86213 6.07608L4.40823 19.74H6.23359L4.66726 5.87168C4.63488 5.59039 4.32728 5.39612 3.9792 5.43457Z" fill="#737373"/>
<path d="M12.5662 5.26444L12.0218 5.20576C11.6737 5.16731 11.3681 5.36563 11.3357 5.64692L9.80382 19.7419H11.6272L13.1389 5.84322C13.1712 5.5599 12.9142 5.30087 12.5662 5.26444Z" fill="#737373"/>
</g>
<defs>
<clipPath id="clip0_2001_1403">
<rect width="10.6667" height="13.3333" fill="white" transform="translate(2.66667 1.96445)"/>
</clipPath>
</defs>
</svg>
