<svg width="16" height="17" viewBox="0 0 16 17" fill="none" xmlns="http://www.w3.org/2000/svg">
<path d="M13.622 7.50654C14.1274 7.40544 14.4614 6.91041 14.2907 6.42401C13.8892 5.27951 13.1807 4.26021 12.2348 3.48227C11.289 2.70433 10.1521 2.20584 8.95166 2.0327C8.44148 1.95912 8.0202 2.38234 8.01854 2.8978C8.01687 3.41326 8.43728 3.82334 8.94271 3.92458C9.71167 4.07861 10.4361 4.41976 11.0491 4.92394C11.6621 5.42812 12.1366 6.0731 12.4361 6.79789C12.633 7.27427 13.1165 7.60765 13.622 7.50654Z" fill="#737373"/>
<path d="M6.85869 3.01252C6.75608 2.50737 6.26008 2.17487 5.7742 2.34697C4.88405 2.66226 4.06753 3.16436 3.38141 3.82349C2.47 4.69907 1.82625 5.81568 1.52521 7.04315C1.22417 8.27062 1.27825 9.55837 1.68113 10.7563C2.08402 11.9542 2.81911 13.0129 3.80072 13.809C4.78233 14.6051 5.97 15.1057 7.22528 15.2526C8.48057 15.3995 9.75174 15.1865 10.8906 14.6385C12.0295 14.0905 12.9891 13.2301 13.6576 12.1575C14.1609 11.3501 14.4836 10.4475 14.6083 9.51145C14.6764 9.00049 14.2486 8.58384 13.7332 8.58774C13.2177 8.59164 12.8122 9.01644 12.7164 9.52293C12.6065 10.1045 12.3894 10.6633 12.0735 11.1701C11.5922 11.9424 10.9012 12.5619 10.0812 12.9564C9.26125 13.351 8.34601 13.5043 7.4422 13.3986C6.5384 13.2928 5.68328 12.9324 4.97652 12.3592C4.26976 11.786 3.74049 11.0237 3.45042 10.1612C3.16034 9.29874 3.12141 8.37155 3.33815 7.48778C3.5549 6.604 4.0184 5.80004 4.67462 5.16962C5.10528 4.7559 5.60729 4.42811 6.15358 4.20044C6.62938 4.00216 6.9613 3.51767 6.85869 3.01252Z" fill="#737373"/>
<path d="M8 12.6311C10.2091 12.6311 12 10.8402 12 8.6311C12 6.42196 10.2091 4.6311 8 4.6311C5.79086 4.6311 4 6.42196 4 8.6311C4 10.8402 5.79086 12.6311 8 12.6311Z" fill="#737373"/>
</svg>
