<svg width="61" height="57" viewBox="0 0 61 57" fill="none" xmlns="http://www.w3.org/2000/svg">
<path fill-rule="evenodd" clip-rule="evenodd" d="M30.7684 44.1926L32.3949 46.2865C32.3949 46.2865 34.8281 46.6618 36.2345 49.0461C36.2345 49.0461 38.268 49.6717 38.8159 52.2516V54.3627C38.8159 54.3627 37.5647 56.6305 30.7224 56.6305C23.88 56.6305 22.6289 54.3627 22.6289 54.3627V52.2516C23.1768 49.6717 25.2102 49.0461 25.2102 49.0461C26.6181 46.6618 29.0499 46.2865 29.0499 46.2865L30.7698 44.1926H30.7684Z" fill="#F6E139"/>
<path fill-rule="evenodd" clip-rule="evenodd" d="M36.2044 49.0461C40.1893 51.2119 28.3381 54.1844 25.0996 49.305C26.6815 51.639 35.5328 52.2746 36.2044 49.0461Z" fill="#C05722"/>
<path fill-rule="evenodd" clip-rule="evenodd" d="M28.1623 37.2162H30.7206H33.279L32.4506 46.2862H30.7206H28.9906L28.1623 37.2162Z" fill="#F6E139"/>
<path fill-rule="evenodd" clip-rule="evenodd" d="M28.1623 37.2162H33.279L32.8749 41.6398C31.2743 40.8675 29.7298 41.0185 28.5434 41.3953L28.1623 37.2162Z" fill="#E0922D"/>
<path d="M30.7203 40.0085C33.1665 40.0085 35.1495 38.9571 35.1495 37.6601C35.1495 36.3632 33.1665 35.3118 30.7203 35.3118C28.2741 35.3118 26.291 36.3632 26.291 37.6601C26.291 38.9571 28.2741 40.0085 30.7203 40.0085Z" fill="#C05722"/>
<path fill-rule="evenodd" clip-rule="evenodd" d="M22.627 54.0176C25.9403 56.7442 35.1669 56.5299 38.8139 53.8752V54.3642C38.8139 54.3642 37.5628 56.632 30.7204 56.632C23.8781 56.632 22.627 54.3642 22.627 54.3642V54.0176Z" fill="#E0922D"/>
<path fill-rule="evenodd" clip-rule="evenodd" d="M17.5137 12.5032H43.9282V25.7104C43.9282 32.9741 37.9846 38.9177 30.7209 38.9177C23.4572 38.9177 17.5137 32.9741 17.5137 25.7104V12.5032Z" fill="#F6E139"/>
<path d="M30.7209 17.0431C38.0151 17.0431 43.9282 15.0105 43.9282 12.5031C43.9282 9.99576 38.0151 7.96313 30.7209 7.96313C23.4268 7.96313 17.5137 9.99576 17.5137 12.5031C17.5137 15.0105 23.4268 17.0431 30.7209 17.0431Z" fill="#F6E139"/>
<path d="M30.7201 16.5177C37.1692 16.5177 42.3973 14.7201 42.3973 12.5026C42.3973 10.2852 37.1692 8.48755 30.7201 8.48755C24.271 8.48755 19.043 10.2852 19.043 12.5026C19.043 14.7201 24.271 16.5177 30.7201 16.5177Z" fill="#E0922D"/>
<path fill-rule="evenodd" clip-rule="evenodd" d="M40.7431 14.5633C38.7025 15.7339 34.9778 16.5162 30.7211 16.5162C26.4645 16.5162 22.7398 15.7324 20.6992 14.5633C22.7844 13.4143 26.4932 12.6506 30.7211 12.6506C34.9491 12.6506 38.6579 13.4143 40.7431 14.5633Z" fill="#C05722"/>
<path fill-rule="evenodd" clip-rule="evenodd" d="M50.6991 21.053C50.5151 24.0643 48.066 27.7328 43.5505 28.8416C43.3247 29.7634 42.9997 30.6492 42.5898 31.4848C48.8397 31.2863 51.1823 25.3356 50.6991 21.053Z" fill="#E0922D"/>
<path fill-rule="evenodd" clip-rule="evenodd" d="M44.35 28.6116C44.0912 28.6964 43.8237 28.7741 43.5505 28.8417C43.3247 29.7635 42.9997 30.6493 42.5898 31.4848C43.5663 31.4532 44.4478 31.2821 45.2388 30.9988C45.4674 30.5889 45.7076 30.3099 45.7076 30.3099C44.3572 30.2567 44.1084 29.5017 44.35 28.6116Z" fill="#C05722"/>
<path fill-rule="evenodd" clip-rule="evenodd" d="M50.6987 21.0534C50.9101 25.0297 48.1073 30.4642 42.5894 31.4852C41.8818 32.929 40.9183 34.2262 39.7578 35.3191C54.6304 34.4476 58.5592 13.9019 49.5698 12.2251C47.4731 11.8339 45.2067 12.6925 43.9282 14.503V18.1241C44.7307 17.0786 46.2435 16.5767 47.6413 16.7938C49.833 17.1347 50.8295 18.9308 50.7001 21.0534H50.6987Z" fill="#F6E139"/>
<path fill-rule="evenodd" clip-rule="evenodd" d="M45.7062 30.3113C44.7887 30.8606 43.7504 31.2704 42.5913 31.4847C41.8838 32.9285 40.9203 34.2257 39.7598 35.3186C42.0075 35.1863 44.005 34.6025 45.745 33.7051C43.7288 32.6007 45.7091 30.3098 45.7091 30.3098H45.7062V30.3113Z" fill="#E0922D"/>
<path fill-rule="evenodd" clip-rule="evenodd" d="M47.8911 12.1721C46.3423 12.3562 44.8682 13.1716 43.9277 14.5047V18.1257C44.4943 17.388 45.4161 16.9206 46.4012 16.7855C45.4118 14.5823 46.5767 13.0896 47.8911 12.1721Z" fill="#E0922D"/>
<path fill-rule="evenodd" clip-rule="evenodd" d="M10.7425 21.053C10.9266 24.0643 13.3757 27.7328 17.8912 28.8416C18.117 29.7634 18.442 30.6492 18.8518 31.4848C12.6437 31.085 10.1688 25.3557 10.7425 21.053Z" fill="#E0922D"/>
<path fill-rule="evenodd" clip-rule="evenodd" d="M10.7431 21.0534C10.5317 25.0297 13.3345 30.4642 18.8524 31.4852C19.5599 32.929 20.5235 34.2262 21.684 35.3191C6.81143 34.4476 2.88261 13.9019 11.872 12.2251C13.9687 11.8339 16.2351 12.6925 17.5136 14.503V18.1241C16.7111 17.0786 15.1983 16.5767 13.8005 16.7938C11.6088 17.1347 10.6123 18.9308 10.7417 21.0534H10.7431Z" fill="#F6E139"/>
<path fill-rule="evenodd" clip-rule="evenodd" d="M13.5508 12.1721C15.0996 12.3562 16.5736 13.1716 17.5141 14.5047V18.1257C16.9475 17.388 16.0257 16.9206 15.0406 16.7855C16.03 14.5823 14.8652 13.0896 13.5508 12.1721Z" fill="#E0922D"/>
<path fill-rule="evenodd" clip-rule="evenodd" d="M17.09 28.6116C17.3488 28.6964 17.6163 28.7741 17.8895 28.8417C18.1153 29.7635 18.4403 30.6493 18.8502 31.4848C17.8737 31.4532 16.9922 31.2821 16.2012 30.9988C15.9726 30.5889 15.7324 30.3099 15.7324 30.3099C17.0828 30.2567 17.3316 29.5017 17.09 28.6116Z" fill="#C05722"/>
<path fill-rule="evenodd" clip-rule="evenodd" d="M15.7361 30.3113C16.6536 30.8606 17.6919 31.2704 18.851 31.4847C19.5585 32.9285 20.522 34.2257 21.6825 35.3186C19.4348 35.1863 17.4373 34.6025 15.6973 33.7051C17.7134 32.6007 15.7332 30.3098 15.7332 30.3098H15.7361V30.3113Z" fill="#E0922D"/>
<path fill-rule="evenodd" clip-rule="evenodd" d="M30.7207 20.6467C37.8536 20.6467 37.8536 31.4912 30.7207 31.4912C23.5879 31.4912 23.5879 20.6467 30.7207 20.6467Z" fill="#E0922D"/>
<path fill-rule="evenodd" clip-rule="evenodd" d="M32.5435 29.6857L30.7214 28.6762L28.8994 29.6857C28.7469 29.7705 28.5686 29.759 28.4277 29.6569C28.2868 29.5534 28.2206 29.3895 28.2551 29.2169L28.652 27.1734L27.1291 25.7526C27.0011 25.6332 26.9565 25.4621 27.0112 25.2953C27.0658 25.1284 27.2025 25.0163 27.3765 24.9947L29.443 24.7402L30.3231 22.8534C30.3964 22.6952 30.546 22.5989 30.7214 22.5989C30.8969 22.5989 31.0464 22.6938 31.1198 22.8534L31.9999 24.7402L34.0664 24.9947C34.2404 25.0163 34.377 25.1284 34.4316 25.2953C34.4863 25.4621 34.4417 25.6332 34.3137 25.7526L32.7908 27.1734L33.1877 29.2169C33.2208 29.3895 33.1561 29.5534 33.0152 29.6569C32.8742 29.759 32.6959 29.7705 32.5435 29.6857Z" fill="white"/>
<path fill-rule="evenodd" clip-rule="evenodd" d="M40.3097 37.3969C40.3097 38.2382 40.9971 38.9256 41.8384 38.9256C40.9971 38.9256 40.3097 39.6144 40.3097 40.4543C40.3097 39.613 39.6209 38.9256 38.7811 38.9256C39.6223 38.9256 40.3097 38.2367 40.3097 37.3969Z" fill="#F6E139"/>
<path fill-rule="evenodd" clip-rule="evenodd" d="M15.8195 8.66241C16.0409 9.7611 17.1195 10.4787 18.2182 10.2572C17.1195 10.4787 16.4019 11.5573 16.6234 12.6559C16.4019 11.5573 15.3233 10.8397 14.2247 11.0611C15.3233 10.8397 16.0409 9.7611 15.8195 8.66241Z" fill="#F6E139"/>
<path fill-rule="evenodd" clip-rule="evenodd" d="M18.3908 5.18085C18.3908 5.85243 18.9402 6.40177 19.6118 6.40177C18.9402 6.40177 18.3908 6.95112 18.3908 7.6227C18.3908 6.95112 17.8415 6.40177 17.1699 6.40177C17.8415 6.40177 18.3908 5.85243 18.3908 5.18085Z" fill="#F6E139"/>
<path fill-rule="evenodd" clip-rule="evenodd" d="M16.9116 34.6194C16.9116 35.5858 17.7026 36.3767 18.6689 36.3767C17.7026 36.3767 16.9116 37.1677 16.9116 38.134C16.9116 37.1677 16.1207 36.3767 15.1543 36.3767C16.1207 36.3767 16.9116 35.5858 16.9116 34.6194Z" fill="#F6E139"/>
<path fill-rule="evenodd" clip-rule="evenodd" d="M47.9663 6.9278C47.9663 7.89418 48.7573 8.68512 49.7236 8.68512C48.7573 8.68512 47.9663 9.47606 47.9663 10.4424C47.9663 9.47606 47.1754 8.68512 46.209 8.68512C47.1754 8.68512 47.9663 7.89418 47.9663 6.9278Z" fill="#F6E139"/>
<path fill-rule="evenodd" clip-rule="evenodd" d="M44.3238 36.3079C44.3238 36.6386 44.5941 36.909 44.9249 36.909C44.5941 36.909 44.3238 37.1793 44.3238 37.5101C44.3238 37.1793 44.0534 36.909 43.7227 36.909C44.0534 36.909 44.3238 36.6386 44.3238 36.3079Z" fill="#F6E139"/>
<path fill-rule="evenodd" clip-rule="evenodd" d="M41.8218 5.28931C41.8218 5.62006 42.0922 5.89042 42.4229 5.89042C42.0922 5.89042 41.8218 6.16078 41.8218 6.49154C41.8218 6.16078 41.5515 5.89042 41.2207 5.89042C41.5515 5.89042 41.8218 5.62006 41.8218 5.28931Z" fill="#F6E139"/>
<path fill-rule="evenodd" clip-rule="evenodd" d="M22.2322 37.1525C22.2322 37.4833 22.5025 37.7536 22.8333 37.7536C22.5025 37.7536 22.2322 38.024 22.2322 38.3548C22.2322 38.024 21.9618 37.7536 21.6311 37.7536C21.9618 37.7536 22.2322 37.4833 22.2322 37.1525Z" fill="#F6E139"/>
<path d="M53.7708 34.1053C53.8394 33.6884 53.5571 33.2947 53.1402 33.2261C52.7233 33.1574 52.3297 33.4398 52.261 33.8567C52.1924 34.2736 52.4747 34.6672 52.8916 34.7359C53.3085 34.8045 53.7021 34.5222 53.7708 34.1053Z" fill="white"/>
<path fill-rule="evenodd" clip-rule="evenodd" d="M59.9607 25.5618C60.172 25.5618 60.3432 25.7329 60.3432 25.9443C60.3432 26.1557 60.172 26.3268 59.9607 26.3268C59.7493 26.3268 59.5781 26.1557 59.5781 25.9443C59.5781 25.7329 59.7493 25.5618 59.9607 25.5618Z" fill="white"/>
<path fill-rule="evenodd" clip-rule="evenodd" d="M60.5622 2.052C60.8038 2.052 60.9993 2.24758 60.9993 2.48918C60.9993 2.73077 60.8038 2.92635 60.5622 2.92635C60.3206 2.92635 60.125 2.73077 60.125 2.48918C60.125 2.24758 60.3206 2.052 60.5622 2.052Z" fill="white"/>
<path fill-rule="evenodd" clip-rule="evenodd" d="M3.21073 0.631104C3.36173 0.631104 3.48397 0.75334 3.48397 0.904338C3.48397 1.05534 3.36173 1.17757 3.21073 1.17757C3.05974 1.17757 2.9375 1.05534 2.9375 0.904338C2.9375 0.75334 3.05974 0.631104 3.21073 0.631104Z" fill="white"/>
<path fill-rule="evenodd" clip-rule="evenodd" d="M0.806355 23.1555C1.01775 23.1555 1.18888 23.3266 1.18888 23.538C1.18888 23.7494 1.01775 23.9206 0.806355 23.9206C0.594959 23.9206 0.423828 23.7494 0.423828 23.538C0.423828 23.3266 0.594959 23.1555 0.806355 23.1555Z" fill="white"/>
<path fill-rule="evenodd" clip-rule="evenodd" d="M9.06022 4.45825C9.30182 4.45825 9.4974 4.65383 9.4974 4.89543C9.4974 5.13702 9.30182 5.3326 9.06022 5.3326C8.81862 5.3326 8.62305 5.13702 8.62305 4.89543C8.62305 4.65383 8.81862 4.45825 9.06022 4.45825Z" fill="white"/>
<path fill-rule="evenodd" clip-rule="evenodd" d="M2.93726 41.9631C3.11845 41.9631 3.26514 42.1098 3.26514 42.291C3.26514 42.4722 3.11845 42.6189 2.93726 42.6189C2.75606 42.6189 2.60938 42.4722 2.60938 42.291C2.60938 42.1098 2.75606 41.9631 2.93726 41.9631Z" fill="white"/>
<path fill-rule="evenodd" clip-rule="evenodd" d="M53.8924 44.4778C54.0132 44.4778 54.111 44.5756 54.111 44.6964C54.111 44.8172 54.0132 44.915 53.8924 44.915C53.7716 44.915 53.6738 44.8172 53.6738 44.6964C53.6738 44.5756 53.7716 44.4778 53.8924 44.4778Z" fill="white"/>
<path fill-rule="evenodd" clip-rule="evenodd" d="M43.3837 43.0383C43.503 43.0383 43.5994 43.1347 43.5994 43.254C43.5994 43.3734 43.503 43.4698 43.3837 43.4698C43.2643 43.4698 43.168 43.3734 43.168 43.254C43.168 43.1347 43.2643 43.0383 43.3837 43.0383Z" fill="white"/>
</svg>
