<svg width="85" height="83" viewBox="0 0 85 83" fill="none" xmlns="http://www.w3.org/2000/svg">
<g opacity="0.08">
<path d="M43.5481 65.7463C45.1261 65.7463 46.4201 66.9615 46.5456 68.5072L46.5556 68.7538V74.7688C46.5556 76.4298 45.2091 77.7763 43.5481 77.7763C41.9701 77.7763 40.676 76.5611 40.5505 75.0154L40.5406 74.7688V68.7538C40.5406 67.0928 41.8871 65.7463 43.5481 65.7463ZM63.9231 57.8225L64.1386 58.0164L68.435 62.2697C69.6153 63.4383 69.6249 65.3425 68.4565 66.523C67.3566 67.6338 65.6052 67.7077 64.4187 66.7383L64.2032 66.5444L59.9068 62.2912C58.7265 61.1225 58.7168 59.2184 59.8853 58.0379C60.9852 56.927 62.7366 56.8531 63.9231 57.8225ZM27.1749 58.0219C28.2814 59.1262 28.3477 60.8782 27.3734 62.0604L27.1785 62.275L22.9289 66.5319C21.7553 67.7074 19.8511 67.7089 18.6756 66.5355C17.5693 65.431 17.5028 63.6792 18.4771 62.4969L18.672 62.2822L22.9217 58.0253C24.0953 56.8498 25.9994 56.8483 27.1749 58.0219ZM43.5481 22.9207C53.9121 22.9207 62.3138 31.3224 62.3138 41.6864C62.3138 52.0504 53.9121 60.4521 43.5481 60.4521C33.1841 60.4521 24.7824 52.0504 24.7824 41.6864C24.7824 31.3224 33.1841 22.9207 43.5481 22.9207ZM16.4806 38.6789C18.1416 38.6789 19.4881 40.0254 19.4881 41.6864C19.4881 43.2644 18.2729 44.5585 16.7273 44.6839L16.4806 44.6939H10.4657C8.80466 44.6939 7.45817 43.3474 7.45817 41.6864C7.45817 40.1084 8.67338 38.8143 10.219 38.6889L10.4657 38.6789H16.4806ZM76.6305 38.6789C78.2915 38.6789 79.638 40.0254 79.638 41.6864C79.638 43.2644 78.4228 44.5585 76.8771 44.6839L76.6305 44.6939H70.6155C68.9545 44.6939 67.608 43.3474 67.608 41.6864C67.608 40.1084 68.8232 38.8143 70.3689 38.6889L70.6155 38.6789H76.6305ZM22.6433 16.6441L22.8579 16.8392L27.111 21.0925C28.2857 22.2669 28.2857 24.1711 27.111 25.3456C26.0056 26.451 24.2539 26.5161 23.0724 25.5406L22.8579 25.3456L18.6046 21.0925C17.4301 19.9178 17.4301 18.0137 18.6046 16.8392C19.71 15.7337 21.4619 15.6687 22.6433 16.6441ZM68.3972 16.8338C69.5036 17.9384 69.5699 19.6901 68.5957 20.8723L68.4008 21.087L64.1511 25.3439C62.9775 26.5194 61.0733 26.5209 59.8978 25.3475C58.7914 24.2429 58.7251 22.4912 59.6993 21.3088L59.8942 21.0942L64.1439 16.8374C65.3175 15.6619 67.2217 15.6603 68.3972 16.8338ZM43.5481 5.5965C45.1261 5.5965 46.4201 6.81171 46.5456 8.35732L46.5556 8.60399V14.619C46.5556 16.28 45.2091 17.6265 43.5481 17.6265C41.9701 17.6265 40.676 16.4112 40.5505 14.8656L40.5406 14.619V8.60399C40.5406 6.94299 41.8871 5.5965 43.5481 5.5965Z" fill="url(#paint0_linear_2001_1348)"/>
</g>
<path d="M27.8619 67.7763C28.9191 67.7763 29.786 68.5904 29.8701 69.6259L29.8767 69.7911V73.8207C29.8767 74.9334 28.9747 75.8355 27.8619 75.8355C26.8048 75.8355 25.9379 75.0214 25.8538 73.9859L25.8471 73.8207V69.7911C25.8471 68.6784 26.7492 67.7763 27.8619 67.7763ZM41.5117 62.468L41.656 62.5978L44.5343 65.4472C45.325 66.2301 45.3315 67.5057 44.5487 68.2966C43.8119 69.0408 42.6386 69.0903 41.8437 68.4408L41.6993 68.311L38.821 65.4616C38.0303 64.6787 38.0239 63.403 38.8067 62.6122C39.5435 61.868 40.7168 61.8185 41.5117 62.468ZM16.8932 62.6015C17.6344 63.3413 17.6788 64.515 17.0261 65.307L16.8956 65.4508L14.0486 68.3026C13.2624 69.0901 11.9867 69.0911 11.1992 68.305C10.4581 67.565 10.4135 66.3915 11.0663 65.5994L11.1969 65.4556L14.0438 62.6038C14.83 61.8163 16.1057 61.8153 16.8932 62.6015ZM27.8619 39.0863C34.805 39.0863 40.4336 44.7148 40.4336 51.6579C40.4336 58.601 34.805 64.2296 27.8619 64.2296C20.9188 64.2296 15.2903 58.601 15.2903 51.6579C15.2903 44.7148 20.9188 39.0863 27.8619 39.0863ZM9.72879 49.6431C10.8415 49.6431 11.7436 50.5452 11.7436 51.6579C11.7436 52.7151 10.9295 53.582 9.89403 53.6661L9.72879 53.6727H5.6992C4.58645 53.6727 3.6844 52.7707 3.6844 51.6579C3.6844 50.6008 4.49851 49.7339 5.53395 49.6498L5.6992 49.6431H9.72879ZM50.0247 49.6431C51.1374 49.6431 52.0395 50.5452 52.0395 51.6579C52.0395 52.7151 51.2254 53.582 50.1899 53.6661L50.0247 53.6727H45.9951C44.8823 53.6727 43.9803 52.7707 43.9803 51.6579C43.9803 50.6008 44.7944 49.7339 45.8299 49.6498L45.9951 49.6431H50.0247ZM13.8573 34.8815L14.0011 35.0121L16.8503 37.8616C17.6373 38.6484 17.6373 39.924 16.8503 40.7108C16.1098 41.4513 14.9363 41.495 14.1448 40.8415L14.0011 40.7108L11.1517 37.8616C10.3649 37.0746 10.3649 35.799 11.1517 35.0121C11.8922 34.2716 13.0659 34.228 13.8573 34.8815ZM44.509 35.0086C45.2502 35.7485 45.2946 36.9221 44.642 37.7141L44.5114 37.8579L41.6644 40.7097C40.8782 41.4972 39.6026 41.4982 38.8151 40.7121C38.0738 39.9721 38.0294 38.7986 38.6821 38.0065L38.8126 37.8627L41.6596 35.011C42.4458 34.2235 43.7215 34.2224 44.509 35.0086ZM27.8619 27.4804C28.9191 27.4804 29.786 28.2945 29.8701 29.33L29.8767 29.4952V33.5248C29.8767 34.6375 28.9747 35.5396 27.8619 35.5396C26.8048 35.5396 25.9379 34.7255 25.8538 33.69L25.8471 33.5248V29.4952C25.8471 28.3825 26.7492 27.4804 27.8619 27.4804Z" fill="url(#paint1_linear_2001_1348)"/>
<defs>
<linearGradient id="paint0_linear_2001_1348" x1="68.2223" y1="11.655" x2="25.9874" y2="61.7476" gradientUnits="userSpaceOnUse">
<stop stop-color="#FFCF3E"/>
<stop offset="1" stop-color="#FF9C29"/>
</linearGradient>
<linearGradient id="paint1_linear_2001_1348" x1="44.3919" y1="31.5391" x2="16.0976" y2="65.0974" gradientUnits="userSpaceOnUse">
<stop stop-color="#FFCF3E"/>
<stop offset="1" stop-color="#FF9C29"/>
</linearGradient>
</defs>
</svg>
