<svg width="24" height="25" viewBox="0 0 24 25" fill="none" xmlns="http://www.w3.org/2000/svg">
<path d="M12 17.1311C12.2833 17.1311 12.5208 17.0353 12.7125 16.8436C12.9042 16.6519 13 16.4144 13 16.1311V12.1311C13 11.8478 12.9042 11.6103 12.7125 11.4186C12.5208 11.2269 12.2833 11.1311 12 11.1311C11.7167 11.1311 11.4792 11.2269 11.2875 11.4186C11.0958 11.6103 11 11.8478 11 12.1311V16.1311C11 16.4144 11.0958 16.6519 11.2875 16.8436C11.4792 17.0353 11.7167 17.1311 12 17.1311ZM12 9.1311C12.2833 9.1311 12.5208 9.03527 12.7125 8.8436C12.9042 8.65194 13 8.41444 13 8.1311C13 7.84777 12.9042 7.61027 12.7125 7.4186C12.5208 7.22694 12.2833 7.1311 12 7.1311C11.7167 7.1311 11.4792 7.22694 11.2875 7.4186C11.0958 7.61027 11 7.84777 11 8.1311C11 8.41444 11.0958 8.65194 11.2875 8.8436C11.4792 9.03527 11.7167 9.1311 12 9.1311ZM12 22.1311C10.6167 22.1311 9.31667 21.8686 8.1 21.3436C6.88333 20.8186 5.825 20.1061 4.925 19.2061C4.025 18.3061 3.3125 17.2478 2.7875 16.0311C2.2625 14.8144 2 13.5144 2 12.1311C2 10.7478 2.2625 9.44777 2.7875 8.2311C3.3125 7.01444 4.025 5.9561 4.925 5.0561C5.825 4.1561 6.88333 3.4436 8.1 2.9186C9.31667 2.3936 10.6167 2.1311 12 2.1311C13.3833 2.1311 14.6833 2.3936 15.9 2.9186C17.1167 3.4436 18.175 4.1561 19.075 5.0561C19.975 5.9561 20.6875 7.01444 21.2125 8.2311C21.7375 9.44777 22 10.7478 22 12.1311C22 13.5144 21.7375 14.8144 21.2125 16.0311C20.6875 17.2478 19.975 18.3061 19.075 19.2061C18.175 20.1061 17.1167 20.8186 15.9 21.3436C14.6833 21.8686 13.3833 22.1311 12 22.1311ZM12 20.1311C14.2333 20.1311 16.125 19.3561 17.675 17.8061C19.225 16.2561 20 14.3644 20 12.1311C20 9.89777 19.225 8.0061 17.675 6.4561C16.125 4.9061 14.2333 4.1311 12 4.1311C9.76667 4.1311 7.875 4.9061 6.325 6.4561C4.775 8.0061 4 9.89777 4 12.1311C4 14.3644 4.775 16.2561 6.325 17.8061C7.875 19.3561 9.76667 20.1311 12 20.1311Z" fill="#1D1B1B"/>
</svg>
