<svg width="20" height="21" viewBox="0 0 20 21" fill="none" xmlns="http://www.w3.org/2000/svg">
<path d="M3.75014 13.8252L4.15529 14.2226L3.69012 14.68C3.87838 14.9733 4.08909 15.2515 4.32036 15.5123L14.8843 4.94765C14.6226 4.72307 14.347 4.51521 14.059 4.32532L13.5939 4.7827L13.1962 4.38531L13.5563 4.0254C12.1354 3.26179 10.5061 2.97623 8.90994 3.21109C7.31382 3.44594 5.83596 4.18869 4.69558 5.32917C3.5552 6.46965 2.81306 7.9471 2.57923 9.54236C2.3454 11.1376 2.63235 12.7657 3.39751 14.1851L3.75014 13.8252ZM12.1458 5.43502L12.5435 5.83241L11.5006 6.88213L11.1029 6.48473L12.1458 5.43502ZM10.0525 7.53445L10.4427 7.93184L9.39977 8.98155L9.00212 8.58416L10.0525 7.53445ZM7.95173 9.63388L8.34938 10.0313L7.29898 11.0735L6.90133 10.6761L7.95173 9.63388ZM5.85093 11.7258L6.24858 12.1307L5.19819 13.1804L4.80054 12.783L5.85093 11.7258ZM5.94097 16.9369L6.40614 16.4795L6.80379 16.8769L6.44366 17.2368C7.86457 18.0004 9.49393 18.286 11.0901 18.0511C12.6862 17.8163 14.164 17.0735 15.3044 15.933C16.4448 14.7926 17.1869 13.3151 17.4208 11.7198C17.6546 10.1246 17.3676 8.49649 16.6025 7.07707L16.2499 7.43697L15.8447 7.03958L16.3099 6.58221C16.1216 6.28894 15.9109 6.01068 15.6796 5.74993L5.11566 16.3146C5.37739 16.5391 5.65304 16.747 5.94097 16.9369ZM14.8018 8.0893L15.1995 8.48669L14.1491 9.5364L13.7514 9.13151L14.8018 8.0893ZM12.701 10.1887L13.0987 10.5861L12.0483 11.6283L11.6506 11.2309L12.701 10.1887ZM10.6002 12.2807L10.9979 12.678L9.95498 13.7278L9.54983 13.3304L10.6002 12.2807ZM8.49943 14.3801L8.89708 14.7775L7.84669 15.8272L7.44904 15.4298L8.49943 14.3801Z" fill="#737373"/>
</svg>
