<svg width="20" height="21" viewBox="0 0 20 21" fill="none" xmlns="http://www.w3.org/2000/svg">
<path d="M14.0373 11.9609L11.3537 14.6445C11.1621 14.8361 10.9384 14.932 10.6829 14.932C10.4273 14.932 10.2037 14.8361 10.012 14.6445L1.86548 6.49796C1.6738 6.30628 1.57796 6.09064 1.57796 5.85103C1.57796 5.61143 1.6738 5.39579 1.86548 5.20411L4.54903 2.52056C4.74071 2.32887 4.97233 2.23303 5.24388 2.23303C5.51543 2.23303 5.74705 2.32887 5.93873 2.52056L14.0373 10.6191C14.229 10.8108 14.3248 11.0344 14.3248 11.29C14.3248 11.5456 14.229 11.7692 14.0373 11.9609ZM16.8167 18.7656L13.4143 15.3633L14.7561 14.0215L18.1585 17.4238C18.3342 17.5996 18.422 17.8232 18.422 18.0947C18.422 18.3663 18.3342 18.5899 18.1585 18.7656C17.9828 18.9413 17.7591 19.0292 17.4876 19.0292C17.216 19.0292 16.9924 18.9413 16.8167 18.7656Z" fill="#737373"/>
</svg>
